<?xml version="1.0" encoding="UTF-8" standalone="no"?>
<svg width="500px" height="462px" viewBox="0 0 500 462" version="1.1" xmlns="http://www.w3.org/2000/svg" xmlns:xlink="http://www.w3.org/1999/xlink">
    <!-- Generator: Sketch 48.2 (47327) - http://www.bohemiancoding.com/sketch -->
    <title>Shape</title>
    <desc>Created with Sketch.</desc>
    <defs></defs>
    <g id="Website" stroke="none" stroke-width="1" fill="none" fill-rule="evenodd">
        <path d="M430.426015,144.625489 C404.965969,144.625489 381.522561,158.519641 369.296698,181.002905 L332.114948,249.33687 L300.857071,191.360364 C285.228132,160.540609 241.366272,156.498674 225.485253,187.192118 L192.714898,250.473664 L143.307285,158.772262 L84.0685657,158.393331 L154.902949,293.040293 C169.901689,321.58646 210.360474,322.091701 226.241492,294.050777 L261.532644,231.400783 L295.815478,293.924466 C311.192337,321.965391 351.525082,322.091701 366.901941,294.050777 L414.923116,207.149173 C423.619864,191.360364 447.441391,197.549577 447.441391,215.485664 L447.567431,331.059745 C447.567431,374.005305 412.654399,408.993306 369.800857,408.993306 L130.451223,408.993306 C87.5976809,408.993306 52.6846483,374.005305 52.6846483,331.059745 L52.6846483,130.731338 C52.6846483,87.7857774 87.5976809,52.7977769 130.451223,52.7977769 L451.600706,52.7977769 L451.600706,0 L130.451223,0 C58.4824805,0 0,58.6080586 0,130.731338 L0,330.807124 C0,403.056713 58.3564406,461.538462 130.451223,461.538462 L369.548777,461.538462 C441.643559,461.538462 500,403.056713 500,330.807124 L500,222.937982 L500,214.34887 C500,175.824176 468.868162,144.625489 430.426015,144.625489 Z" id="Shape" fill="#FFFFFF" fill-rule="nonzero" transform="translate(250.000000, 230.769231) scale(1, -1) translate(-250.000000, -230.769231) "></path>
    </g>
</svg>